# xmcd
#
# Track frame offsets:
#	150
#	38913
#	70326
#	99240
#	129427
#	166046
#	190632
#	215476
#	242222
#	268159
#	298190
#
# Disc length: 4450 seconds
#
# Revision: 0
# Processed by: cddbd v1.5.2PL0 Copyright (c) Steve Scherf et al.
# Submitted via: EasyCDDAExtractor 11.0.2.1
#
DISCID=9f11600b
DTITLE=Olavi Letku ja Tenho Liiteri - Lihamiehet - Pohjanmaan käriste
DYEAR=2007
DGENRE=
TTITLE0=Kuka pölli humppakasetit?
TTITLE1=Flikka kuskiksi
TTITLE2=Asko juhulatuulella
TTITLE3=Mähösen kyläilytavat
TTITLE4=Merihädässä, melkein
TTITLE5=Fjatseslav sairastui
TTITLE6=Laivoosta ja lentokonehista
TTITLE7=Mannekiini
TTITLE8=Mähösen naistilanne
TTITLE9=Joulunaikaa
TTITLE10=Eiköhän lähäretä Norjahan?
EXTD=
EXTT0=
EXTT1=
EXTT2=
EXTT3=
EXTT4=
EXTT5=
EXTT6=
EXTT7=
EXTT8=
EXTT9=
EXTT10=
PLAYORDER=
